<svg width="256" height="256" viewBox="0 0 256 256" fill="none" xmlns="http://www.w3.org/2000/svg">
<path opacity="0.988" fill-rule="evenodd" clip-rule="evenodd" d="M124.25 5.75C160.189 6.16185 185.439 22.6618 200 55.25C208.11 77.0085 206.776 98.175 196 118.75C188.837 132.751 180.671 146.085 171.5 158.75C159.423 174.572 147.59 190.572 136 206.75C130.194 211.536 124.527 211.37 119 206.25C108.411 191.406 97.5775 176.738 86.5 162.25C78.378 151.177 70.878 139.677 64 127.75C57.839 116.93 53.506 105.43 51 93.25C47.9045 62.033 58.988 37.2831 84.25 19C96.486 11.1156 109.82 6.69895 124.25 5.75ZM124.25 48.75C143.503 48.7437 155.92 57.9105 161.5 76.25C164.114 94.4415 157.198 107.524 140.75 115.5C123.76 121.191 109.843 116.941 99 102.75C90.5015 87.8805 91.5015 73.7135 102 60.25C108.181 53.997 115.598 50.164 124.25 48.75Z" fill="white"/>
<path opacity="0.974" fill-rule="evenodd" clip-rule="evenodd" d="M77.2501 176.25C84.9991 175.949 89.3326 179.616 90.2501 187.25C90.1236 190.884 88.6236 193.801 85.7501 196C79.8161 198.134 74.1496 200.8 68.7501 204C66.8581 205.554 65.3581 207.387 64.2501 209.5C65.7501 212.333 67.9166 214.5 70.7501 216C83.6876 222.318 97.3541 225.984 111.75 227C134.71 229.375 157.043 226.708 178.75 219C183.038 217.371 186.788 214.955 190 211.75C191.184 210.458 191.351 209.124 190.5 207.75C188.9 205.982 187.15 204.398 185.25 203C180.257 200.252 175.09 197.919 169.75 196C164.726 191.393 163.976 186.143 167.5 180.25C172.188 175.882 177.438 175.132 183.25 178C193.654 181.579 202.237 187.662 209 196.25C214.526 206.371 213.859 216.037 207 225.25C200.457 232.148 192.707 237.231 183.75 240.5C157.513 249.24 130.68 251.74 103.25 248C90.9971 246.645 79.1641 243.645 67.7501 239C58.8681 235.282 51.6181 229.532 46.0001 221.75C40.1737 209.471 42.257 198.721 52.2501 189.5C59.7006 183.359 68.0341 178.942 77.2501 176.25Z" fill="white"/>
</svg>
