<svg width="256" height="256" viewBox="0 0 256 256" fill="none" xmlns="http://www.w3.org/2000/svg">
<path opacity="0.987" fill-rule="evenodd" clip-rule="evenodd" d="M123.75 7.74988C128.032 7.18018 132.032 7.93018 135.75 9.99988C142.602 17.3512 149.269 24.8512 155.75 32.4999C157.675 34.0136 159.842 34.5136 162.25 33.9999C171.716 31.7566 181.216 29.6733 190.75 27.7499C197.291 28.2122 201.541 31.5455 203.5 37.7499C204.526 46.5626 205.359 55.3959 206 64.2499C205.944 68.6939 208.027 71.6104 212.25 72.9999C221.142 76.3514 229.808 80.1849 238.25 84.4999C242.781 89.2099 243.864 94.6264 241.5 100.75C236.833 108.416 232.166 116.083 227.5 123.75C225.833 126.416 225.833 129.083 227.5 131.75C232.166 139.416 236.833 147.083 241.5 154.75C244.072 161.715 242.489 167.465 236.75 172C228.308 175.804 219.808 179.471 211.25 183C207.679 184.553 205.929 187.303 206 191.25C205.304 200.097 204.471 208.931 203.5 217.75C201.523 223.976 197.273 227.31 190.75 227.75C181.216 225.826 171.716 223.743 162.25 221.5C158.424 221.203 155.34 222.62 153 225.75C147.436 232.481 141.686 239.064 135.75 245.5C130.403 248.479 125.07 248.479 119.75 245.5C112.897 238.148 106.231 230.648 99.7496 223C97.8061 221.485 95.6396 220.985 93.2496 221.5C83.7831 223.743 74.2831 225.826 64.7496 227.75C58.2266 227.31 53.9766 223.976 51.9996 217.75C50.9736 208.937 50.1401 200.104 49.4996 191.25C49.3583 187.448 47.6083 184.698 44.2496 183C35.0657 179.384 26.0657 175.384 17.2496 171C12.7239 166.308 11.6406 160.891 13.9996 154.75C18.6662 147.083 23.3329 139.416 27.9996 131.75C28.4667 130.432 28.8834 129.098 29.2496 127.75C28.8834 126.401 28.4667 125.068 27.9996 123.75C22.7883 115.83 17.955 107.664 13.4996 99.2499C11.6794 92.7714 13.4294 87.5214 18.7496 83.4999C26.4602 79.8744 34.2935 76.5409 42.2496 73.4999C47.0382 72.0034 49.4549 68.7534 49.4996 63.7499C50.1351 55.0619 50.9686 46.3953 51.9996 37.7499C53.9641 31.5384 58.2141 28.2051 64.7496 27.7499C74.2831 29.6733 83.7831 31.7566 93.2496 33.9999C97.1466 34.4536 100.23 33.0369 102.5 29.7499C108.063 23.0185 113.813 16.4352 119.75 9.99988C121.195 9.36278 122.529 8.61278 123.75 7.74988ZM95.2496 71.7499C106.799 72.5634 114.549 78.3969 118.5 89.2499C121.196 103.544 115.78 113.294 102.25 118.5C89.4976 121.165 80.0811 116.749 73.9996 105.25C69.3501 91.4589 73.4331 81.0424 86.2496 73.9999C89.2031 72.7649 92.2031 72.0149 95.2496 71.7499ZM167.75 79.7499C174.687 81.6244 176.771 85.7909 174 92.2499C146.75 119.5 119.5 146.75 92.2496 174C87.9726 176.414 84.2226 175.664 80.9996 171.75C79.2811 168.803 79.4476 165.97 81.4996 163.25C108.75 136 136 108.75 163.25 81.4999C164.729 80.6979 166.229 80.1144 167.75 79.7499ZM159.25 135.75C170.805 136.565 178.555 142.398 182.5 153.25C185.091 164.981 181.341 174.064 171.25 180.5C161.046 185.347 151.63 184.097 143 176.75C135.21 167.68 134.043 157.847 139.5 147.25C144.262 140.245 150.845 136.412 159.25 135.75Z" fill="white"/>
<path opacity="0.942" fill-rule="evenodd" clip-rule="evenodd" d="M92.7503 87.7501C101.667 87.0911 105.083 91.0911 103 99.7501C100.519 103.357 97.1018 104.607 92.7503 103.5C88.2593 101.264 86.6758 97.6801 88.0003 92.7501C89.0113 90.4901 90.5948 88.8236 92.7503 87.7501Z" fill="white"/>
<path opacity="0.943" fill-rule="evenodd" clip-rule="evenodd" d="M156.75 151.75C164.982 150.898 168.565 154.565 167.5 162.75C165.228 167.124 161.644 168.707 156.75 167.5C151.578 164.49 150.328 160.24 153 154.75C154.239 153.68 155.489 152.68 156.75 151.75Z" fill="white"/>
</svg>
