<svg width="256" height="256" viewBox="0 0 256 256" fill="none" xmlns="http://www.w3.org/2000/svg">
<path opacity="0.948" fill-rule="evenodd" clip-rule="evenodd" d="M97.7501 32.7499C100.465 32.5804 103.132 32.8304 105.75 33.4999C113.539 42.9384 121.539 43.105 129.75 33.9999C136.172 31.0898 140.756 32.8398 143.5 39.2499C143.773 40.9495 143.607 42.6162 143 44.2499C139.5 51.5834 136 58.9164 132.5 66.2499C127.78 66.9084 123.03 66.9084 118.25 66.2499C120.38 62.7424 121.88 58.9924 122.75 54.9999C121.041 45.0618 115.208 40.8951 105.25 42.4999C101.847 43.9012 99.0131 46.0679 96.7501 48.9999C96.1206 49.4909 95.4541 49.6575 94.7501 49.4999C92.3911 46.0924 91.4746 42.3424 92.0001 38.2499C93.2061 35.6261 95.1231 33.7928 97.7501 32.7499Z" fill="white"/>
<path opacity="0.97" fill-rule="evenodd" clip-rule="evenodd" d="M72.25 46.75C74.7995 46.5873 77.2995 46.8373 79.75 47.5C81.9165 49.3334 84.0835 51.1665 86.25 53C93.0105 55.9315 98.677 54.515 103.25 48.75C107.038 46.1978 110.871 46.1145 114.75 48.5C117.557 50.984 118.474 54.0675 117.5 57.75C114.25 64.5835 111 71.4165 107.75 78.25C96.9205 78.833 86.087 78.9165 75.25 78.5C71.642 70.7595 68.4755 62.843 65.75 54.75C66.277 50.6705 68.4435 48.0039 72.25 46.75Z" fill="white"/>
<path opacity="0.948" fill-rule="evenodd" clip-rule="evenodd" d="M115.75 71.2501C122.752 71.1666 129.752 71.2501 136.75 71.5001C139.889 72.6946 140.972 74.9446 140 78.2501C139.417 79.5001 138.5 80.4166 137.25 81.0001C130.583 81.3336 123.917 81.3336 117.25 81.0001C116.056 80.0696 114.723 79.4031 113.25 79.0001C112.989 78.7196 112.822 78.3861 112.75 78.0001C113.824 75.7686 114.825 73.5186 115.75 71.2501Z" fill="white"/>
<path opacity="0.96" fill-rule="evenodd" clip-rule="evenodd" d="M72.2503 83.2501C85.7513 83.1666 99.2513 83.2501 112.75 83.5001C116.544 85.2516 117.461 88.0016 115.5 91.7501C115.049 92.3506 114.466 92.7676 113.75 93.0001C99.5838 93.3336 85.4168 93.3336 71.2503 93.0001C68.2133 91.0741 67.5468 88.4911 69.2503 85.2501C70.1453 84.3421 71.1453 83.6756 72.2503 83.2501Z" fill="white"/>
<path opacity="0.962" fill-rule="evenodd" clip-rule="evenodd" d="M139.75 84.75C148.018 91.454 155.018 99.2875 160.75 108.25C151.291 107.903 141.874 108.737 132.5 110.75C128.049 105.798 123.383 100.964 118.5 96.25C118.167 95.75 118.167 95.25 118.5 94.75C120.657 92.454 121.407 89.7875 120.75 86.75C125.909 86.334 131.076 86.084 136.25 86C137.596 85.922 138.762 85.5055 139.75 84.75Z" fill="white"/>
<path opacity="0.983" fill-rule="evenodd" clip-rule="evenodd" d="M70.7498 97.75C84.7498 98.408 98.7498 98.408 112.75 97.75C118.216 101.716 123.05 106.382 127.25 111.75C123.034 113.441 119.034 115.524 115.25 118C113.558 119.635 112.308 121.552 111.5 123.75C111.166 130.25 111.166 136.75 111.5 143.25C112.308 145.449 113.558 147.366 115.25 149C113.309 150.464 112.059 152.381 111.5 154.75C110.878 163.567 111.295 172.317 112.75 181C112.554 182.477 112.137 183.894 111.5 185.25C111.166 191.583 111.166 197.917 111.5 204.25C112.072 206.397 113.156 208.23 114.75 209.75C111.123 210.474 107.456 210.89 103.75 211C87.1838 211.783 70.6838 211.116 54.2498 209C30.73 204.639 20.48 190.555 23.4998 166.75C25.6004 157.116 29.267 148.116 34.4998 139.75C44.705 124.128 56.7883 110.128 70.7498 97.75ZM87.2498 126.75C90.3418 126.598 91.5918 128.098 90.9998 131.25C97.2268 132.979 100.81 137.062 101.75 143.5C101.377 145.549 100.21 146.382 98.2498 146C97.2103 143.826 96.2938 141.576 95.4998 139.25C90.6363 134.484 85.9693 134.651 81.4998 139.75C79.4673 144.204 80.3843 147.954 84.2498 151C86.9953 151.988 89.8288 152.655 92.7498 153C100.763 156.874 103.179 162.958 99.9998 171.25C98.0013 174.667 95.0848 176.833 91.2498 177.75C90.8978 179.352 90.5648 180.936 90.2498 182.5C89.2498 182.834 88.2498 182.834 87.2498 182.5C86.5443 181.002 86.0443 179.419 85.7498 177.75C79.2803 175.536 76.0303 171.036 75.9998 164.25C77.1408 162.479 78.4743 162.313 79.9998 163.75C80.4698 170.891 84.2198 173.974 91.2498 173C96.0498 170.943 97.7998 167.359 96.4998 162.25C94.2038 158.058 90.6208 156.142 85.7498 156.5C76.2663 152.618 73.6833 146.034 77.9998 136.75C80.2013 134.111 82.9513 132.444 86.2498 131.75C86.0758 129.958 86.4093 128.291 87.2498 126.75Z" fill="white"/>
<path opacity="0.972" fill-rule="evenodd" clip-rule="evenodd" d="M150.75 112.75C161.148 112.571 171.314 113.987 181.25 117C195.588 122.632 195.755 128.465 181.75 134.5C168.194 138.725 154.361 139.892 140.25 138C132.573 137.163 125.407 134.83 118.75 131C114.795 127.627 114.795 124.294 118.75 121C124.109 117.657 129.942 115.491 136.25 114.5C141.132 113.689 145.966 113.106 150.75 112.75Z" fill="white"/>
<path opacity="0.938" fill-rule="evenodd" clip-rule="evenodd" d="M191.75 134.25C192.325 136.825 192.408 139.492 192 142.25C191.3 143.951 190.216 145.368 188.75 146.5C182.947 147.66 177.447 149.66 172.25 152.5C159.052 154.892 145.885 154.726 132.75 152C128.561 150.993 124.561 149.493 120.75 147.5C116.006 144.562 114.339 140.312 115.75 134.75C127.766 140.955 140.6 143.788 154.25 143.25C165.514 143.677 176.348 141.76 186.75 137.5C188.534 136.529 190.201 135.446 191.75 134.25Z" fill="white"/>
<path opacity="0.971" fill-rule="evenodd" clip-rule="evenodd" d="M188.75 151.25C203.707 149.861 215.957 154.861 225.5 166.25C232.695 176.802 234.195 188.135 230 200.25C226.761 207.996 221.511 213.913 214.25 218C203.094 223.354 191.594 224.187 179.75 220.5C161.128 211.84 153.711 197.423 157.5 177.25C163.006 162.659 173.423 153.992 188.75 151.25ZM178.25 170.25C179.099 170.17 179.933 170.253 180.75 170.5C184.992 175.326 189.492 179.909 194.25 184.25C199.008 179.909 203.508 175.326 207.75 170.5C210.5 169.917 211.583 171 211 173.75C206.235 178.348 201.651 183.098 197.25 188C201.82 192.57 206.403 197.153 211 201.75C211.571 204.43 210.488 205.513 207.75 205C203.192 200.465 198.692 195.882 194.25 191.25C189.658 195.425 185.325 199.841 181.25 204.5C178.3 205.883 177.05 204.966 177.5 201.75C182.205 197.297 186.621 192.63 190.75 187.75C186.635 182.883 182.218 178.217 177.5 173.75C177.083 172.415 177.333 171.248 178.25 170.25Z" fill="white"/>
<path opacity="0.943" fill-rule="evenodd" clip-rule="evenodd" d="M118.75 151.75C127.637 155.745 136.97 157.995 146.75 158.5C152.444 158.661 158.111 158.745 163.75 158.75C160.865 161.8 158.365 165.134 156.25 168.75C145.654 169.725 135.32 168.475 125.25 165C122.77 163.927 120.436 162.593 118.25 161C114.835 157.678 115.001 154.595 118.75 151.75Z" fill="white"/>
<path opacity="0.935" fill-rule="evenodd" clip-rule="evenodd" d="M115.75 165.25C119.972 167.69 124.472 169.606 129.25 171C137.336 172.833 145.503 174.083 153.75 174.75C152.634 177.996 151.967 181.329 151.75 184.75C141.148 184.706 130.982 182.622 121.25 178.5C116.04 175.58 114.206 171.164 115.75 165.25Z" fill="white"/>
<path opacity="0.936" fill-rule="evenodd" clip-rule="evenodd" d="M118.75 182.25C129.205 186.939 140.205 189.272 151.75 189.25C152.098 192.977 152.765 196.644 153.75 200.25C143.057 200.218 132.724 198.302 122.75 194.5C119.704 193.27 117.454 191.187 116 188.25C115.706 185.672 116.623 183.672 118.75 182.25Z" fill="white"/>
<path opacity="0.938" fill-rule="evenodd" clip-rule="evenodd" d="M115.75 195.75C124.116 200.455 133.116 203.205 142.75 204C147.264 204.275 151.764 204.691 156.25 205.25C158.103 208.688 160.436 211.771 163.25 214.5C151.081 216.177 139.081 215.177 127.25 211.5C123.033 210.187 119.449 207.937 116.5 204.75C115.795 201.811 115.545 198.81 115.75 195.75Z" fill="white"/>
</svg>
