<svg width="24" height="24" viewBox="0 0 24 24" fill="none" xmlns="http://www.w3.org/2000/svg">
<g clip-path="url(#clip0_230_7)">
<path d="M17.4721 14.382C17.1751 14.233 15.7141 13.515 15.4421 13.415C15.1691 13.316 14.9711 13.267 14.7721 13.565C14.5751 13.862 14.0051 14.531 13.8321 14.729C13.6591 14.928 13.4851 14.952 13.1881 14.804C12.8911 14.654 11.9331 14.341 10.7981 13.329C9.91513 12.541 9.31813 11.568 9.14513 11.27C8.97213 10.973 9.12713 10.812 9.27513 10.664C9.40913 10.531 9.57313 10.317 9.72113 10.144C9.87013 9.97 9.91913 9.846 10.0191 9.647C10.1181 9.449 10.0691 9.276 9.99413 9.127C9.91913 8.978 9.32513 7.515 9.07813 6.92C8.83613 6.341 8.59113 6.42 8.40913 6.41C8.23613 6.402 8.03813 6.4 7.83913 6.4C7.64113 6.4 7.31913 6.474 7.04713 6.772C6.77513 7.069 6.00713 7.788 6.00713 9.251C6.00713 10.713 7.07213 12.126 7.22013 12.325C7.36913 12.523 9.31613 15.525 12.2971 16.812C13.0061 17.118 13.5591 17.301 13.9911 17.437C14.7031 17.664 15.3511 17.632 15.8621 17.555C16.4331 17.47 17.6201 16.836 17.8681 16.142C18.1161 15.448 18.1161 14.853 18.0411 14.729C17.9671 14.605 17.7701 14.531 17.4721 14.382ZM12.0501 21.785H12.0461C10.2759 21.7851 8.53821 21.3092 7.01513 20.407L6.65413 20.193L2.91313 21.175L3.91113 17.527L3.67613 17.153C2.68657 15.5773 2.16307 13.7537 2.16613 11.893C2.16713 6.443 6.60213 2.009 12.0541 2.009C14.6941 2.009 17.1761 3.039 19.0421 4.907C19.9628 5.82362 20.6926 6.91373 21.1891 8.11425C21.6857 9.31476 21.9393 10.6018 21.9351 11.901C21.9321 17.351 17.4981 21.785 12.0501 21.785ZM20.4631 3.488C19.3613 2.37893 18.0504 1.49954 16.6062 0.900803C15.1621 0.302067 13.6135 -0.00411439 12.0501 2.83058e-06C5.49513 2.83058e-06 0.160129 5.335 0.157129 11.892C0.157129 13.988 0.704129 16.034 1.74513 17.837L0.0571289 24L6.36213 22.346C8.10572 23.2959 10.0596 23.7938 12.0451 23.794H12.0501C18.6041 23.794 23.9401 18.459 23.9431 11.901C23.948 10.3383 23.6429 8.7901 23.0456 7.34604C22.4482 5.90197 21.5705 4.59067 20.4631 3.488Z" fill="white"/>
</g>
<defs>
<clipPath id="clip0_230_7">
<rect width="24" height="24" fill="white"/>
</clipPath>
</defs>
</svg>
